<?xml version="1.0" encoding="UTF-8" standalone="no"?>
<svg
   id="svg28"
   style="clip-rule:evenodd;fill-rule:evenodd;stroke-linejoin:round;stroke-miterlimit:1.41421"
   xml:space="preserve"
   version="1.1"
   viewBox="0 0 19.999999 20"
   height="20"
   width="20"
   xmlns:xlink="http://www.w3.org/1999/xlink"
   xmlns="http://www.w3.org/2000/svg"
   xmlns:svg="http://www.w3.org/2000/svg"
   xmlns:rdf="http://www.w3.org/1999/02/22-rdf-syntax-ns#"
   xmlns:cc="http://creativecommons.org/ns#"
   xmlns:dc="http://purl.org/dc/elements/1.1/"><title
     id="title4510">DAMASK_grid logo</title><metadata
     id="metadata32"><rdf:RDF><cc:Work
         rdf:about=""><dc:title>DAMASK_grid logo</dc:title><dc:format>image/svg+xml</dc:format><dc:type
           rdf:resource="http://purl.org/dc/dcmitype/StillImage" /></cc:Work></rdf:RDF></metadata><g
     transform="translate(-35.751371,66.691982)"
     id="g4572"><g
       style="fill:#4480cf;fill-opacity:1"
       id="DAMASK"
       transform="matrix(1.0000038,0,0,1,33.685933,-47.736904)"><g
   aria-label="DAMASK_mesh"
   style="font-weight:700;font-size:30px;font-family:Calibri-Bold, Calibri, sans-serif;fill:#4480cf;fill-opacity:1"
   id="text21"><g
     id="g6"
     transform="translate(0.8564973,0.26006472)"
     style="stroke:#7ccf45;stroke-opacity:1"><path
       style="fill:none;stroke:#7ccf45;stroke-width:0.126514;stroke-linecap:butt;stroke-linejoin:miter;stroke-dasharray:none;stroke-opacity:1"
       d="m 15.504287,-6.2222151 v 5.4212384 l 4.82e-4,-0.01067"
       id="path16-1" /><g
       id="g5"
       style="stroke:#7ccf45;stroke-opacity:1"><rect
         style="fill:none;stroke:#7ccf45;stroke-width:0.271102;stroke-linecap:round;stroke-linejoin:round;stroke-dasharray:none;stroke-opacity:1"
         id="rect1-7"
         width="5.2934341"
         height="5.2934542"
         x="13.749234"
         y="-6.1579208" /><path
         style="fill:none;stroke:#7ccf45;stroke-width:0.126514;stroke-linecap:butt;stroke-linejoin:miter;stroke-dasharray:none;stroke-opacity:1"
         d="m 13.684939,-4.4023843 h 5.421218 l -0.01068,-5.66e-4"
         id="path16" /><path
         style="fill:none;stroke:#7ccf45;stroke-width:0.126514;stroke-linecap:butt;stroke-linejoin:miter;stroke-dasharray:none;stroke-opacity:1"
         d="m 13.684939,-2.5950379 h 5.421218 l -0.01068,-5.661e-4"
         id="path16-15" /><path
         style="fill:none;stroke:#7ccf45;stroke-width:0.126514;stroke-linecap:butt;stroke-linejoin:miter;stroke-dasharray:none;stroke-opacity:1"
         d="m 17.311628,-6.2222151 v 5.4212384 l 4.82e-4,-0.01067"
         id="path16-1-6" /></g></g><path
     d="m 17.094374,-10.027006 q 0,2.068278 -0.546116,3.543959 -0.534498,1.464061 -1.545391,2.393624 -1.010896,0.929563 -2.463333,1.371105 -1.440816,0.429923 -3.4393705,0.429923 h -3.590422 q -0.383444,0 -0.650692,-0.220771 -0.255629,-0.232391 -0.255629,-0.74365 v -13.106841 q 0,-0.511258 0.255629,-0.73203 0.267248,-0.232391 0.650692,-0.232391 h 3.85767 q 2.0101735,0 3.4045115,0.476402 1.40596,0.46478 2.358757,1.394343 0.964418,0.917943 1.464057,2.277429 0.499637,1.359486 0.499637,3.148898 z m -3.1605,0.10458 q 0,-1.069001 -0.255631,-1.986943 -0.244008,-0.917944 -0.801744,-1.591879 -0.546115,-0.673931 -1.417578,-1.045757 -0.859842,-0.383444 -2.2658015,-0.383444 h -1.545392 v 10.225195 h 1.59187 q 1.2549065,0 2.1147485,-0.325347 0.859843,-0.325347 1.429198,-0.976041 0.580974,-0.662313 0.859842,-1.638355 0.290488,-0.976041 0.290488,-2.277429 z"
     style="font-weight:bold;font-size:40px;line-height:1.25;font-family:Calibri;-inkscape-font-specification:'Calibri Bold';white-space:pre;shape-inside:url(#rect2498);clip-rule:evenodd;fill:#4480cf;fill-opacity:1;fill-rule:evenodd;stroke-width:0.594919;stroke-linejoin:round;stroke-miterlimit:1.41421"
     id="path16298" /></g>
</g></g></svg>
